<svg width="46" height="26" viewBox="0 0 46 26" fill="none" xmlns="http://www.w3.org/2000/svg">
<path d="M46 0.686035H0V25.686H46V0.686035Z" fill="white"/>
<path d="M45 1.68604V24.686H1V1.68604H45ZM46 0.686035H0V25.686H46V0.686035Z" fill="#A6A6A6"/>
<path d="M15.5 8.88601C15.4 8.98601 15.2 9.18601 15.1 9.28601C14.6 9.78601 14.2 10.286 14.1 10.986C13.9 11.886 14.1 12.786 14.7 13.586C15 13.986 15.3 14.286 15.8 14.486C15.8666 14.486 15.9333 14.5193 16 14.586C15.9 14.786 15.9 14.886 15.8 15.086C15.4 15.986 14.9 16.786 14.3 17.486C14.2 17.586 14 17.786 13.9 17.886C13.4 18.286 12.9 18.386 12.3 18.286C12 18.186 11.7 18.086 11.4 17.986C11.1 17.886 10.8 17.786 10.4 17.786C9.99997 17.786 9.59997 17.886 9.19997 17.986C8.89997 18.086 8.59998 18.186 8.29997 18.286C7.79997 18.386 7.39997 18.286 6.99997 17.986C6.59997 17.686 6.29997 17.386 5.99997 16.986C5.29997 16.086 4.79997 14.986 4.49997 13.886C4.19997 12.886 4.09997 11.886 4.29997 10.886C4.39997 9.98601 4.79997 9.18601 5.39997 8.48601C6.09997 7.78601 6.89997 7.48601 7.79997 7.58601C8.29997 7.58601 8.69997 7.78601 9.19997 7.88601C9.39997 7.98601 9.59998 7.98601 9.79997 7.98601C10.1 8.08601 10.3 7.98601 10.6 7.98601C11 7.88601 11.3 7.78601 11.7 7.68601C12.3 7.48601 12.8 7.48601 13.4 7.58601C14.1 7.68601 14.7 8.08601 15.2 8.68601C15.4 8.68601 15.4 8.78601 15.5 8.88601Z" fill="black"/>
<path d="M12.7 4.28601V4.78601C12.6 5.58601 12.3 6.28601 11.8 6.88601C11.5 7.18601 11.3 7.38601 10.9 7.48601C10.6 7.68601 10.3 7.68601 10 7.68601C10 5.88601 10.9 4.68601 12.7 4.28601Z" fill="black"/>
<path d="M19.4 6.48601C20.1 6.38601 21.1 6.28601 22.3 6.28601C23.8 6.28601 24.9 6.58601 25.6 7.28601C26.2 7.88601 26.6 8.68601 26.6 9.78601C26.6 10.886 26.3 11.686 25.7 12.286C24.9 13.186 23.6 13.586 22.1 13.586C21.6 13.586 21.2 13.586 20.9 13.486V18.186H19.4V6.48601ZM20.9 12.186C21.2 12.286 21.6 12.286 22.2 12.286C24 12.286 25.1 11.386 25.1 9.78601C25.1 8.28601 24 7.48601 22.3 7.48601C21.6 7.48601 21.1 7.58601 20.9 7.58601V12.186Z" fill="black"/>
<path d="M32.0999 18.086L32 16.986H31.9C31.4 17.686 30.4999 18.286 29.2999 18.286C27.5999 18.286 26.7 17.086 26.7 15.886C26.7 13.886 28.4999 12.686 31.7999 12.786V12.586C31.7999 11.886 31.5999 10.586 29.9 10.586C29.1 10.586 28.3 10.786 27.7 11.186L27.4 10.186C28.1 9.68602 29.1 9.48602 30.2 9.48602C32.8 9.48602 33.4 11.286 33.4 12.886V16.086C33.4 16.786 33.4 17.486 33.5 18.086H32.0999ZM31.9 13.786C30.1999 13.786 28.2999 14.086 28.2999 15.686C28.2999 16.686 29 17.186 29.7 17.186C30.8 17.186 31.5 16.486 31.7 15.786C31.8 15.586 31.7999 15.486 31.7999 15.286V13.786H31.9Z" fill="black"/>
<path d="M35.4 9.68604L37.2 14.686C37.4 15.286 37.6 15.886 37.7 16.386C37.9 15.886 38 15.286 38.2 14.586L39.9 9.68604H41.5L39.2 15.686C38.1 18.586 37.3999 20.086 36.2999 20.986C35.5999 21.686 34.8 21.886 34.4 21.986L34 20.686C34.4 20.586 34.8999 20.286 35.2999 19.986C35.6999 19.686 36.1999 19.086 36.5999 18.286C36.6999 18.086 36.7 17.986 36.7 17.886C36.7 17.786 36.6999 17.686 36.5999 17.486L33.7 9.68604H35.4Z" fill="black"/>
</svg>
