<?xml version="1.0" encoding="utf-8"?>
<!-- Generator: Adobe Illustrator 19.2.1, SVG Export Plug-In . SVG Version: 6.00 Build 0)  -->
<svg version="1.1" id="Layer_1" xmlns="http://www.w3.org/2000/svg" xmlns:xlink="http://www.w3.org/1999/xlink" x="0px" y="0px"
	 viewBox="0 0 232.1 238.1" style="enable-background:new 0 0 232.1 238.1;" xml:space="preserve">
<style type="text/css">
	.st0{fill:#C4C4C4;}
</style>
<g id="Path_28923">
	<path id="Path_28923-2" d="M217.8,238.1H48.9c-7.9,0-14.4-6.4-14.4-14.4v-25.5H10.6v-4h27.9v29.5c0,5.7,4.6,10.4,10.4,10.4h168.8
		c5.7,0,10.4-4.6,10.4-10.4v-95c0-5.7-4.6-10.4-10.4-10.4H48.9c-5.7,0-10.4,4.6-10.4,10.4v53.5H0v-4h34.6v-49.5
		c0-7.9,6.4-14.4,14.4-14.4h168.8c7.9,0,14.4,6.4,14.4,14.4v95C232.1,231.7,225.7,238.1,217.8,238.1z"/>
</g>
<g id="Line_112">
	<rect id="Rectangle_12342" x="38.6" y="137.4" width="191.8" height="4"/>
</g>
<g id="Line_113">
	<rect id="Rectangle_12343" x="38.6" y="156.1" width="191.8" height="4"/>
</g>
<g id="Rectangle_12342-2">
	<path id="Path_28924" class="st0" d="M203.7,212.8h-38.4v-27.7h38.4V212.8z M169.4,208.8h30.4v-19.7h-30.4V208.8z"/>
</g>
<g id="Line_114">
	<rect id="Rectangle_12344" x="57.4" y="191.5" class="st0" width="82" height="4"/>
</g>
<g id="Line_115">
	<rect id="Rectangle_12345" x="72.5" y="200.6" class="st0" width="32.1" height="4"/>
</g>
<g id="Line_116">
	<rect id="Rectangle_12346" x="110" y="200.6" class="st0" width="28.8" height="4"/>
</g>
<g id="Path_28924-2">
	<path id="Path_28925" class="st0" d="M128.2,79.4c-2.3,0-4.3-1.8-4.5-4.1l-6.2-70.4c-0.2-2.5,1.6-4.6,4.1-4.8c0.1,0,0.3,0,0.4,0
		h19.9c2.5,0,4.5,2,4.5,4.5c0,0.1,0,0.3,0,0.4l-6.6,70.4c-0.2,2.3-2.1,4.1-4.5,4.1L128.2,79.4L128.2,79.4z M122,4
		c-0.1,0-0.3,0.1-0.4,0.2c-0.1,0.1-0.1,0.2-0.1,0.3l6.2,70.4c0,0.2,0.2,0.4,0.5,0.4h7c0.2,0,0.5-0.2,0.5-0.4l6.6-70.4
		c0-0.3-0.2-0.5-0.4-0.5c0,0,0,0,0,0L122,4z"/>
</g>
<g id="Rectangle_12343-2">
	<path id="Path_28926" class="st0" d="M131.9,101.1h-0.3c-4.8,0-8.7-3.9-8.7-8.7s3.9-8.7,8.7-8.7l0,0h0.3c4.8,0,8.7,3.9,8.7,8.7
		S136.8,101.1,131.9,101.1z M131.6,87.6c-2.6,0-4.7,2.1-4.7,4.7s2.1,4.7,4.7,4.7l0,0h0.3c2.6,0,4.7-2.1,4.7-4.7s-2.1-4.7-4.7-4.7
		H131.6z"/>
</g>
</svg>
